<?xml version="1.0" encoding="utf-8"?>
<!-- Generator: Adobe Illustrator 17.0.0, SVG Export Plug-In . SVG Version: 6.00 Build 0)  -->
<!DOCTYPE svg PUBLIC "-//W3C//DTD SVG 1.1//EN" "http://www.w3.org/Graphics/SVG/1.1/DTD/svg11.dtd">
<svg version="1.1" id="Layer_1" xmlns="http://www.w3.org/2000/svg" xmlns:xlink="http://www.w3.org/1999/xlink" x="0px" y="0px"
	 width="800px" height="800px" viewBox="0 0 800 800" enable-background="new 0 0 800 800" xml:space="preserve">
<g>
	<path d="M287.629,481.54c-8.972,0-15.595-7.067-15.595-16.039c0-8.887,6.581-16.124,15.722-16.124c5.65,0,9.014,1.989,12.125,4.93
		l-2.391,2.582c-2.624-2.497-5.544-4.274-9.776-4.274c-6.877,0-12.04,5.544-12.04,12.802c0,7.258,5.205,12.886,12.04,12.886
		c4.274,0,7.067-1.65,10.051-4.486l2.306,2.264C296.834,479.361,293.279,481.54,287.629,481.54z"/>
	<path d="M309.572,449.906h3.513v27.847h17.499v3.237h-21.012L309.572,449.906L309.572,449.906z"/>
	<path d="M352.76,481.54c-9.459,0-15.807-7.427-15.807-16.039c0-8.612,6.433-16.124,15.912-16.124
		c9.48,0,15.807,7.427,15.807,16.039C368.672,474.029,362.219,481.54,352.76,481.54z M352.76,452.615
		c-7.11,0-12.167,5.692-12.167,12.802s5.163,12.887,12.252,12.887s12.167-5.692,12.167-12.802S359.87,452.615,352.76,452.615z"/>
	<path d="M389.007,481.011h-3.555v-27.868h-10.432v-3.237h24.44v3.237h-10.432v27.868H389.007z"/>
	<path d="M412.41,467.003v13.987h-3.513v-31.105h3.513v13.818h17.944v-13.818h3.513v31.105h-3.513v-13.987H412.41z"/>
	<path d="M449.991,449.906v31.105h-3.513v-31.105H449.991z"/>
	<path d="M485.37,449.906h3.428v31.105h-2.793l-20.081-25.498v25.498h-3.428v-31.105h3.28l19.594,24.927L485.37,449.906
		L485.37,449.906z"/>
	<path d="M515.481,481.54c-9.776,0-15.807-7.11-15.807-16.039c0-8.57,6.263-16.124,15.595-16.124c5.248,0,8.485,1.502,11.596,4.126
		l-2.264,2.666c-2.391-2.095-5.057-3.555-9.459-3.555c-6.877,0-11.807,5.819-11.807,12.802c0,7.47,4.761,12.971,12.315,12.971
		c3.555,0,6.835-1.375,8.972-3.111v-7.723h-9.459v-3.153h12.844v12.4C525.088,479.361,520.729,481.54,515.481,481.54z"/>
</g>
<g>
	<rect y="463.681" width="238.369" height="3.555"/>
	<rect x="561.631" y="463.681" width="238.369" height="3.555"/>
</g>
<text transform="matrix(1.1384 0 0 1 7.4995 431.6045)" font-family="'Helvetica-Condensed-Black-Se'" font-size="132.0777">OTHER FACES</text>
</svg>
